<svg width="250" height="58" viewBox="0 0 250 58" fill="none" xmlns="http://www.w3.org/2000/svg">
<path d="M243.669 56.2087H6.33131C3.46783 56.2087 1.15115 52.6033 1.15115 48.1469V9.85349C1.15115 5.39712 3.46783 1.79172 6.33131 1.79172H243.669C246.532 1.79172 248.849 5.39712 248.849 9.85349V48.1469C248.849 52.6033 246.532 56.2087 243.669 56.2087Z" fill="url(#paint0_linear_23_681)"/>
<path opacity="0.1" d="M243.669 53.8797H6.33131C3.46783 53.8797 1.15115 50.2519 1.15115 45.7956V48.1469C1.15115 52.6033 3.46783 56.2087 6.33131 56.2087H243.669C246.532 56.2087 248.849 52.6033 248.849 48.1469V45.7956C248.849 50.2519 246.532 53.8797 243.669 53.8797Z" fill="black"/>
<path opacity="0.2" d="M243.669 1.79172H6.33131C3.46783 1.79172 1.15115 5.39712 1.15115 9.85349V12.384C1.15115 7.95002 3.46783 4.32222 6.33131 4.32222H243.669C246.532 4.32222 248.849 7.95002 248.849 12.384V9.85349C248.849 5.39712 246.532 1.79172 243.669 1.79172Z" fill="white"/>
<path fill-rule="evenodd" clip-rule="evenodd" d="M250 9.85328V48.1467C250 53.5884 247.151 58 243.669 58H6.3313C2.84908 58 0 53.5884 0 48.1467V9.85328C0 4.41158 2.84908 0 6.3313 0H243.669C247.151 0 250 4.41158 250 9.85328ZM6.3313 1.79151C3.46783 1.79151 1.15115 5.39691 1.15115 9.85328V48.1467C1.15115 52.6031 3.46783 56.2085 6.3313 56.2085H243.669C246.532 56.2085 248.849 52.6031 248.849 48.1467V9.85328C248.849 5.39691 246.532 1.79151 243.669 1.79151H6.3313Z" fill="url(#paint1_linear_23_681)"/>
<path opacity="0.3" d="M222.965 42.9409H160.133C152.642 42.9409 146.577 36.8762 146.577 29.3846C146.577 21.8929 152.642 15.8283 160.133 15.8283H222.965C230.457 15.8283 236.521 21.8929 236.521 29.3846C236.521 36.8762 230.457 42.9409 222.965 42.9409Z" fill="black"/>
<path opacity="0.2" d="M160.133 18.8829H222.965C229.944 18.8829 235.674 24.1449 236.432 30.923C236.499 30.4102 236.521 29.8974 236.521 29.3846C236.521 21.8929 230.457 15.8283 222.965 15.8283H160.133C152.642 15.8283 146.577 21.8929 146.577 29.3846C146.577 29.8974 146.622 30.4102 146.666 30.923C147.424 24.1449 153.177 18.8829 160.133 18.8829Z" fill="black"/>
<path d="M157.123 16.9431L159.687 22.1382C160.044 22.8517 160.735 23.3422 161.516 23.476L167.268 24.301C169.253 24.5909 170.033 27.0212 168.606 28.4259L164.437 32.4838C163.879 33.0412 163.612 33.8439 163.745 34.6243L164.727 40.3545C165.061 42.3166 162.987 43.8328 161.226 42.8963L156.075 40.1984C155.384 39.8194 154.537 39.8194 153.824 40.1984L148.695 42.8963C146.912 43.8328 144.838 42.3166 145.172 40.3545L146.153 34.6243C146.287 33.8439 146.042 33.0412 145.462 32.4838L141.293 28.4259C139.866 27.0212 140.669 24.5909 142.653 24.301L148.383 23.476C149.186 23.3422 149.855 22.8517 150.211 22.1382L152.776 16.9431C153.667 15.1371 156.232 15.1371 157.123 16.9431Z" fill="url(#paint2_linear_23_681)"/>
<path fill-rule="evenodd" clip-rule="evenodd" d="M158.528 16.2297L161.114 21.447C161.226 21.6923 161.471 21.8707 161.739 21.9153L167.491 22.7402C169.007 22.9632 170.234 24.0111 170.724 25.4604C171.193 26.9097 170.791 28.4927 169.699 29.563L165.552 33.621C165.351 33.7993 165.262 34.0892 165.306 34.3567L166.287 40.087C166.488 41.2464 166.176 42.4281 165.418 43.32C164.637 44.2341 163.523 44.7692 162.341 44.7692C161.694 44.7692 161.07 44.6132 160.49 44.301L155.34 41.6031C155.228 41.5362 155.094 41.4916 154.961 41.4916C154.827 41.4916 154.693 41.5362 154.559 41.6031L149.431 44.301C148.829 44.6132 148.205 44.7692 147.558 44.7692C146.376 44.7692 145.262 44.2341 144.504 43.32C143.745 42.4281 143.433 41.2464 143.612 40.087L144.615 34.3567C144.66 34.0892 144.57 33.7993 144.37 33.621L140.2 29.563C139.108 28.4927 138.729 26.9097 139.197 25.4604C139.665 24.0111 140.892 22.9632 142.408 22.7402L148.16 21.9153C148.45 21.8707 148.673 21.6923 148.807 21.447L151.371 16.2297C152.04 14.8696 153.422 14 154.961 14C156.477 14 157.859 14.8696 158.528 16.2297ZM152.776 16.9431L150.211 22.1382C149.855 22.8517 149.186 23.3423 148.383 23.476L142.653 24.301C140.669 24.5909 139.866 27.0212 141.293 28.4259L145.462 32.4838C146.042 33.0412 146.287 33.8439 146.154 34.6243L145.172 40.3545C144.905 41.9153 146.154 43.1862 147.558 43.1862C147.937 43.1862 148.316 43.097 148.695 42.8963L153.824 40.1984C154.18 40.0201 154.559 39.9086 154.961 39.9086C155.34 39.9086 155.719 40.0201 156.075 40.1984L161.226 42.8963C161.583 43.097 161.984 43.1862 162.341 43.1862C163.745 43.1862 164.994 41.9153 164.727 40.3545L163.745 34.6243C163.612 33.8439 163.879 33.0412 164.437 32.4838L168.606 28.4259C170.033 27.0212 169.253 24.5909 167.268 24.301L161.516 23.476C160.735 23.3423 160.044 22.8517 159.688 22.1382L157.123 16.9431C156.677 16.029 155.808 15.5831 154.961 15.5831C154.091 15.5831 153.222 16.029 152.776 16.9431Z" fill="url(#paint3_linear_23_681)"/>
<g opacity="0.2">
<path d="M161.516 23.476C160.735 23.3422 160.044 22.8517 159.688 22.1382L157.123 16.9431C156.232 15.1371 153.667 15.1371 152.776 16.9431L150.211 22.1382C149.855 22.8517 149.186 23.3422 148.383 23.476L142.653 24.301C142.363 24.3456 142.118 24.4348 141.873 24.5463C144.927 28.4482 149.632 30.9454 154.961 30.9454C160.267 30.9454 164.994 28.4482 168.026 24.5463C167.803 24.4348 167.536 24.3456 167.268 24.301L161.516 23.476Z" fill="white"/>
</g>
<g opacity="0.4">
<path d="M156.098 17.8796C156.098 18.5039 155.585 19.0167 154.961 19.0167C154.314 19.0167 153.801 18.5039 153.801 17.8796C153.801 17.233 154.314 16.7202 154.961 16.7202C155.585 16.7202 156.098 17.233 156.098 17.8796Z" fill="white"/>
</g>
<g opacity="0.4">
<path d="M157.592 20.6221C157.592 21.0457 157.257 21.3802 156.856 21.3802C156.432 21.3802 156.098 21.0457 156.098 20.6221C156.098 20.1985 156.432 19.864 156.856 19.864C157.257 19.864 157.592 20.1985 157.592 20.6221Z" fill="white"/>
</g>
<g opacity="0.4">
<path d="M164.414 25.1259C164.414 25.5273 164.08 25.8617 163.656 25.8617C163.255 25.8617 162.92 25.5273 162.92 25.1259C162.92 24.7023 163.255 24.3679 163.656 24.3679C164.08 24.3679 164.414 24.7023 164.414 25.1259Z" fill="white"/>
</g>
<path opacity="0.1" d="M163.745 34.6243C163.634 33.9108 163.857 33.175 164.325 32.6399C161.605 34.3567 158.394 35.3601 154.961 35.3601C151.505 35.3601 148.294 34.3567 145.596 32.6399C146.064 33.175 146.287 33.9108 146.153 34.6243L145.172 40.3545C144.838 42.3166 146.912 43.8328 148.695 42.8963L153.823 40.1984C154.537 39.8194 155.384 39.8194 156.075 40.1984L161.226 42.8963C162.987 43.8328 165.061 42.3166 164.726 40.3545L163.745 34.6243Z" fill="black"/>
<path opacity="0.3" d="M102.872 42.7187H44.2489C37.2591 42.7187 31.6007 36.6991 31.6007 29.263C31.6007 21.8269 37.2591 15.8073 44.2489 15.8073H102.872C109.862 15.8073 115.52 21.8269 115.52 29.263C115.52 36.6991 109.862 42.7187 102.872 42.7187Z" fill="black"/>
<path opacity="0.2" d="M44.2489 18.8392H102.872C109.383 18.8392 114.729 24.0622 115.437 30.79C115.499 30.281 115.52 29.772 115.52 29.263C115.52 21.8269 109.862 15.8073 102.872 15.8073H44.2489C37.2591 15.8073 31.6007 21.8269 31.6007 29.263C31.6007 29.772 31.6423 30.281 31.6839 30.79C32.3912 24.0622 37.7584 18.8392 44.2489 18.8392Z" fill="black"/>
<g clip-path="url(#clip0_23_681)">
<path d="M20.8486 19.4227H25.2502C25.2502 18.7933 25.2555 18.1436 25.2661 17.4733V15H44.599V17.4757C44.599 18.1648 44.599 18.8114 44.599 19.425H49.1567C49.3655 19.4254 49.5661 19.4974 49.7172 19.6261C49.8682 19.7548 49.9581 19.9304 49.9683 20.1165C50.043 21.2106 50.0076 22.3085 49.8625 23.397C49.7376 24.4234 49.3921 25.4186 48.8447 26.3281C48.304 27.1903 47.4963 27.895 46.5183 28.3577C45.3773 28.8701 44.1208 29.1445 42.8437 29.1602C41.9792 30.4417 40.8266 31.0482 39.4783 32.1503C37.8472 33.2619 36.6205 34.0997 37.5749 36.665H38.9998C39.5477 36.6663 40.0727 36.8611 40.4601 37.207C40.8475 37.5528 41.0657 38.0215 41.0671 38.5106V39.254H41.2707C41.5378 39.2529 41.8025 39.2988 42.0497 39.3891C42.297 39.4794 42.5218 39.6124 42.7115 39.7803C42.9012 39.9488 43.0517 40.1493 43.1543 40.37C43.2568 40.5908 43.3094 40.8275 43.3089 41.0665V42.3008C43.3089 42.4116 43.2596 42.5178 43.1719 42.5962C43.0841 42.6745 42.9651 42.7185 42.841 42.7185H27.0268C26.9027 42.7185 26.7837 42.6745 26.6959 42.5962C26.6081 42.5178 26.5588 42.4116 26.5588 42.3008V41.0665C26.5582 40.8275 26.6107 40.5907 26.7133 40.37C26.8159 40.1492 26.9664 39.9488 27.1563 39.7803C27.3447 39.611 27.5688 39.4768 27.8157 39.3852C28.0625 39.2937 28.3272 39.2467 28.5944 39.2469H28.798V38.5106C28.798 38.2687 28.8517 38.0292 28.9561 37.806C29.0605 37.5828 29.2134 37.3803 29.406 37.2102C29.7923 36.865 30.3162 36.6707 30.8627 36.6698H32.4647C33.316 34.2484 32.2004 33.4648 30.6591 32.3816C29.2708 31.5388 28.1007 30.4404 27.2277 29.1602C25.9099 29.1564 24.6114 28.8767 23.4367 28.3436C22.4629 27.8816 21.6609 27.1763 21.1288 26.314C20.5921 25.4071 20.2547 24.417 20.1348 23.397C19.9956 22.3255 19.962 21.2452 20.0344 20.1685V20.1496C20.0344 20.0539 20.0555 19.9592 20.0966 19.8709C20.1377 19.7825 20.1979 19.7023 20.2738 19.6348C20.3497 19.5672 20.4397 19.5137 20.5388 19.4773C20.6379 19.441 20.7441 19.4224 20.8512 19.4227H20.8486ZM44.5091 22.0801C44.4514 23.5059 44.2746 24.9258 43.9804 26.3281C44.4473 26.2497 44.8949 26.0979 45.3022 25.8797C45.711 25.6543 46.0472 25.338 46.2777 24.9617C46.5398 24.5201 46.7125 24.0408 46.788 23.5457C46.8701 23.0573 46.9142 22.5644 46.9201 22.0706H44.5091V22.0801ZM25.319 22.0801H23.1723C23.177 22.5751 23.2168 23.0693 23.2913 23.5598C23.3582 24.0526 23.5191 24.5316 23.7672 24.9758C23.9857 25.3501 24.3113 25.666 24.7109 25.8915C25.0951 26.101 25.5174 26.2488 25.9587 26.3281C25.5891 24.9344 25.3748 23.5115 25.319 22.0801Z" fill="#F39D00"/>
<path d="M25.3084 20.1496H20.8486C20.727 22.3397 20.883 24.4401 21.8505 25.9576C22.7573 27.3996 24.4149 28.353 27.3017 28.4262C26.9392 28.0263 26.6304 27.5899 26.3817 27.1258C24.6475 26.9181 23.6429 26.2786 23.0666 25.3157C22.4903 24.3528 22.3634 23.0996 22.3634 21.6411C22.3634 21.5641 22.3977 21.4903 22.4586 21.4358C22.5196 21.3814 22.6023 21.3508 22.6886 21.3508H25.3084V20.1496ZM44.5462 21.3532H47.4066C47.4924 21.3532 47.5747 21.3834 47.6356 21.4374C47.6965 21.4913 47.7311 21.5645 47.7318 21.6411C47.7318 23.1043 47.5837 24.3646 46.981 25.3227C46.3782 26.2809 45.3525 26.9158 43.6235 27.1258C43.3637 27.5963 43.0357 28.0343 42.648 28.4285C45.556 28.3601 47.2189 27.4066 48.1389 25.9623C49.1091 24.4354 49.273 22.342 49.154 20.1519H44.5462V21.3532Z" fill="#F9C809"/>
<path d="M41.0672 39.2516H41.2707C41.538 39.2509 41.8029 39.2972 42.0501 39.3879C42.2973 39.4786 42.5221 39.6119 42.7115 39.7803C42.9013 39.9489 43.0518 40.1493 43.1543 40.3701C43.2569 40.5908 43.3094 40.8275 43.309 41.0665V43.5752C43.309 43.686 43.2597 43.7922 43.1719 43.8706C43.0842 43.9489 42.9651 43.9929 42.841 43.9929H27.0268C26.9027 43.9929 26.7837 43.9489 26.6959 43.8706C26.6082 43.7922 26.5589 43.686 26.5589 43.5752V41.0736C26.5572 40.8334 26.6092 40.5953 26.7118 40.3732C26.8144 40.1512 26.9655 39.9496 27.1563 39.7803C27.3448 39.6111 27.5688 39.4768 27.8157 39.3853C28.0625 39.2937 28.3272 39.2467 28.5945 39.2469H41.0672V39.2516Z" fill="#222222"/>
<path d="M38.6746 40.4883H29.4431C29.2956 40.4882 29.1496 40.5143 29.0134 40.5649C28.8773 40.6155 28.7538 40.6898 28.65 40.7833C28.4393 40.971 28.3205 41.2256 28.3195 41.4913V42.7374H41.5589V41.4913C41.5571 41.2253 41.4374 40.9707 41.2258 40.7833C41.0151 40.5955 40.7304 40.4887 40.4327 40.4859L38.6746 40.4883Z" fill="#EAD79E"/>
<path d="M33.4059 36.9482H34.9921V32.7498C29.1311 30.8901 28.5786 24.4897 27.1801 15.623H25.9561V21.9408C26.0804 24.3457 26.5245 26.1252 27.1378 27.4869C27.6413 28.6171 28.3957 29.6447 29.3558 30.5077C29.9136 30.996 30.5061 31.4517 31.1297 31.8718C32.9829 33.1722 34.3259 34.1162 33.4059 36.9482Z" fill="#F8B705"/>
<path d="M34.9921 36.9482H36.6549C35.6292 33.9486 37.099 32.9362 39.0342 31.6264C41.1623 30.1773 43.9249 28.294 43.9249 22.1037V15.623H27.1801C28.0842 21.3532 28.6341 26.0473 30.4873 29.1602C31.1187 30.1654 31.9553 31.0563 32.9538 31.7869C33.4042 32.0821 33.8891 32.3329 34.3999 32.535C34.5905 32.6038 34.7856 32.6621 34.9841 32.7096V32.745H35.0026V36.9482H34.9921Z" fill="#FAC809"/>
<path d="M35.4018 19.7507L36.142 21.3721L38.0957 21.5042C38.1974 21.5112 38.2942 21.5457 38.3734 21.603C38.4526 21.6603 38.5104 21.7378 38.5391 21.8251C38.5678 21.9125 38.5661 22.0055 38.5341 22.092C38.5021 22.1784 38.4414 22.2541 38.3601 22.309L36.8823 23.4276L37.3475 25.1221C37.3629 25.1795 37.3654 25.239 37.355 25.2972C37.3445 25.3554 37.3213 25.4112 37.2867 25.4614C37.2521 25.5116 37.2067 25.5552 37.1532 25.5897C37.0997 25.6242 37.039 25.649 36.9748 25.6626C36.9079 25.6773 36.8384 25.6794 36.7706 25.6688C36.7028 25.6583 36.6382 25.6353 36.5809 25.6012L34.9365 24.6761L33.2737 25.5942C33.2175 25.6253 33.155 25.6462 33.0897 25.6556C33.0244 25.6651 32.9577 25.663 32.8933 25.6494C32.829 25.6358 32.7683 25.611 32.7147 25.5764C32.6611 25.5418 32.6157 25.4981 32.5811 25.4478C32.5457 25.3978 32.522 25.3419 32.5116 25.2835C32.5011 25.2251 32.5041 25.1654 32.5203 25.108L32.9829 23.4135L31.4866 22.2807C31.4112 22.2227 31.3568 22.1461 31.33 22.0605C31.3032 21.975 31.3054 21.8843 31.3362 21.7998C31.367 21.7154 31.425 21.6409 31.503 21.5858C31.5811 21.5307 31.6756 21.4974 31.7748 21.4901L33.7284 21.3721L34.4713 19.7578C34.5098 19.6761 34.5746 19.6064 34.6573 19.5573C34.7401 19.5083 34.8372 19.4821 34.9365 19.4821C35.0359 19.4821 35.133 19.5083 35.2158 19.5573C35.2985 19.6064 35.3632 19.6761 35.4018 19.7578V19.7507Z" fill="#F39D00"/>
<path d="M34.9366 19.923L35.7957 21.7921L38.0587 21.9455L36.3271 23.2554L36.8638 25.2189L34.9366 24.1545L33.0093 25.2189L33.546 23.2554L31.8144 21.9455L34.0747 21.7921L34.9366 19.923Z" fill="white"/>
<path fill-rule="evenodd" clip-rule="evenodd" d="M40.2556 26.2384L40.2371 26.262C40.0248 26.1314 39.7642 26.0789 39.5097 26.1154C39.2551 26.1519 39.0261 26.2746 38.8703 26.4579L38.8439 26.439C38.9198 26.3468 38.9736 26.2415 39.0018 26.1298C39.03 26.0181 39.032 25.9025 39.0078 25.79C38.991 25.6768 38.9486 25.5677 38.8832 25.4695C38.8177 25.3714 38.7306 25.2861 38.6271 25.2189C38.8729 25.2725 39.1218 25.3142 39.3726 25.344C39.4996 25.3286 39.6218 25.2903 39.7318 25.2315C39.8418 25.1727 39.9372 25.0945 40.0123 25.0018L40.0388 25.0183C39.8935 25.2079 39.835 25.44 39.8753 25.6669C39.9156 25.8938 40.0517 26.0983 40.2556 26.2384ZM42.2779 23.2129L42.2594 23.2365C42.0477 23.105 41.7872 23.0518 41.5325 23.0879C41.2777 23.1239 41.0485 23.2465 40.8927 23.43L40.8662 23.4135C41.0125 23.224 41.0714 22.9914 41.0305 22.7641C40.9896 22.5369 40.8522 22.3325 40.6468 22.1933L40.6653 22.1697C40.878 22.3005 41.139 22.3531 41.394 22.3166C41.649 22.2801 41.8784 22.1574 42.0347 21.9739L42.0585 21.9927C41.9122 22.1823 41.8534 22.4148 41.8943 22.6421C41.9351 22.8693 42.0725 23.0738 42.2779 23.2129ZM42.2938 20.0127L42.2594 20.0552C41.8712 19.8163 41.3947 19.72 40.9291 19.7864C40.4634 19.8527 40.0442 20.0766 39.7586 20.4115L39.711 20.3808C39.8482 20.2127 39.9457 20.0214 39.9975 19.8185C40.0493 19.6156 40.0544 19.4055 40.0123 19.2008C39.9819 18.9931 39.904 18.7931 39.7835 18.6132C39.663 18.4334 39.5025 18.2776 39.3118 18.1553L39.3461 18.1129C39.7344 18.3518 40.2108 18.448 40.6765 18.3817C41.1422 18.3153 41.5614 18.0914 41.847 17.7565L41.8946 17.7872C41.7574 17.9553 41.6599 18.1467 41.6081 18.3495C41.5562 18.5524 41.5512 18.7625 41.5932 18.9672C41.624 19.1749 41.702 19.3748 41.8225 19.5546C41.943 19.7344 42.1033 19.8903 42.2938 20.0127Z" fill="white"/>
</g>
<defs>
<linearGradient id="paint0_linear_23_681" x1="47060.2" y1="-7439.99" x2="47060.2" y2="-101151" gradientUnits="userSpaceOnUse">
<stop stop-color="#3E9BF7"/>
<stop offset="1" stop-color="#3AC3FF"/>
</linearGradient>
<linearGradient id="paint1_linear_23_681" x1="45496.2" y1="-7467.41" x2="45496.2" y2="-108274" gradientUnits="userSpaceOnUse">
<stop stop-color="#AEB6D6"/>
<stop offset="1" stop-color="#CDD4EC"/>
</linearGradient>
<linearGradient id="paint2_linear_23_681" x1="7307.91" y1="-20734.1" x2="7307.91" y2="-24294.4" gradientUnits="userSpaceOnUse">
<stop stop-color="#F39C12"/>
<stop offset="1" stop-color="#F1C40F"/>
</linearGradient>
<linearGradient id="paint3_linear_23_681" x1="7865.04" y1="-22891.9" x2="7865.04" y2="-27293.6" gradientUnits="userSpaceOnUse">
<stop stop-color="#AEB6D6"/>
<stop offset="1" stop-color="#CDD4EC"/>
</linearGradient>
<clipPath id="clip0_23_681">
<rect width="30" height="29" fill="white" transform="translate(20 15)"/>
</clipPath>
</defs>
</svg>
